<svg xmlns="http://www.w3.org/2000/svg" version="1.1" xmlns:xlink="http://www.w3.org/1999/xlink" xmlns:svgjs="http://svgjs.dev/svgjs" width="1440" height="560" preserveAspectRatio="none" viewBox="0 0 1440 560"><g mask="url(&quot;#SvgjsMask1055&quot;)" fill="none"><rect width="1440" height="560" x="0" y="0" fill="#0e2a47"></rect><path d="M0,643.393C116.93,624.809,197.029,525.506,298.257,464.097C402.893,400.621,539.686,379.779,605.077,276.329C672.829,169.144,689.52,27.168,650.754,-93.564C613.733,-208.861,503.261,-280.728,403.959,-350.033C323.054,-406.498,229.914,-433.757,133.477,-454.581C43.408,-474.029,-45.124,-472.728,-137.082,-466.859C-254.636,-459.357,-386.738,-488.099,-479.469,-415.462C-574.588,-340.955,-595.456,-207.486,-619.398,-89.056C-644.514,35.183,-666.258,165.188,-620.769,283.496C-573.995,405.149,-478.873,504.317,-366.117,569.688C-256.194,633.417,-125.486,663.337,0,643.393" fill="#091b2e"></path><path d="M1440 1097.597C1538.252 1086.312 1603.228 996.902 1687.057 944.428 1772.1689999999999 891.15 1873.601 864.996 1936.554 786.769 2009.9009999999998 695.626 2092.973 584.086 2069.2309999999998 469.53 2045.408 354.58299999999997 1912.846 303.013 1821.112 229.765 1745.839 169.661 1671.5819999999999 112.54599999999999 1581.027 79.70800000000003 1485.643 45.11900000000003 1386.955 24.999000000000024 1286.063 35.73900000000003 1170.228 48.06999999999999 1041.887 61.047000000000025 961.7860000000001 145.62599999999998 881.03 230.89600000000002 869.808 360.269 867.511 477.688 865.401 585.564 897.901 689.2280000000001 949.297 784.097 998.1410000000001 874.255 1067.155 950.496 1153.565 1005.701 1239.811 1060.8020000000001 1338.323 1109.275 1440 1097.597" fill="#133960"></path></g><defs><mask id="SvgjsMask1055"><rect width="1440" height="560" fill="#ffffff"></rect></mask></defs></svg>